# xmcd CD database file
#
# Track frame offsets:
#	150
#	14273
#	28893
#	41877
#	54586
#	66419
#	80425
#	93947
#	108252
#	121665
#	132894
#	144375
#	157908
#	173455
#	186695
#	201871
#	214191
#	224835
#	236477
#	252182
#
# Disc length: 3496 seconds
#
# Revision: 7
# Processed by: cddbd v1.5.2PL0 Copyright (c) Steve Scherf et al.
# Submitted via: CDex 1.51
#
DISCID=220da614
DTITLE=Benny Goodman - Vol.02 - I Had To Do It
DYEAR=1900
DGENRE=Jazz
TTITLE0=The Dixieland Band
TTITLE1=Blue Moon
TTITLE2=Throwin' Stones at the Sun
TTITLE3=Down Home Rag
TTITLE4=Singing a Happy Song
TTITLE5=Clouds
TTITLE6=I Was Lucky
TTITLE7=Night Wind
TTITLE8=Hunkadola
TTITLE9=I'm Living in a Great Big Way
TTITLE10=Hooray for Love
TTITLE11=The Dixieland Band
TTITLE12=Japanese Sandman
TTITLE13=You're a Heavenly Thing
TTITLE14=Restless
TTITLE15=Always
TTITLE16=Get Rhythm In Your Feet  (And Music In Your Soul)
TTITLE17=Ballad In Blue
TTITLE18=Blue Skies
TTITLE19=Dear Old Southland
EXTD=
EXTT0=
EXTT1=
EXTT2=
EXTT3=
EXTT4=
EXTT5=
EXTT6=
EXTT7=
EXTT8=
EXTT9=
EXTT10=
EXTT11=
EXTT12=
EXTT13=
EXTT14=
EXTT15=
EXTT16=
EXTT17=
EXTT18=
EXTT19=
PLAYORDER=
